<svg width="282" height="287" viewBox="0 0 282 287" fill="none" xmlns="http://www.w3.org/2000/svg">
<path d="M281 76.5L1 76.5L140 1.5L281 76.5Z" stroke="#1A2B33" stroke-width="1.5" stroke-linecap="round" stroke-linejoin="round"/>
<path d="M267 76.5L15 76.5L140.1 9.5L267 76.5Z" stroke="#1A2B33" stroke-width="1.5" stroke-linecap="round" stroke-linejoin="round"/>
<path d="M29 76.5H1L1 83.5H29V76.5Z" stroke="#1A2B33" stroke-width="1.5" stroke-linecap="round" stroke-linejoin="round"/>
<path d="M57 76.5H29V83.5H57V76.5Z" stroke="#1A2B33" stroke-width="1.5" stroke-linecap="round" stroke-linejoin="round"/>
<path d="M85 76.5H57V83.5H85V76.5Z" stroke="#1A2B33" stroke-width="1.5" stroke-linecap="round" stroke-linejoin="round"/>
<path d="M113 76.5H85V83.5H113V76.5Z" stroke="#1A2B33" stroke-width="1.5" stroke-linecap="round" stroke-linejoin="round"/>
<path d="M141 76.5H113V83.5H141V76.5Z" stroke="#1A2B33" stroke-width="1.5" stroke-linecap="round" stroke-linejoin="round"/>
<path d="M169 76.5H141V83.5H169V76.5Z" stroke="#1A2B33" stroke-width="1.5" stroke-linecap="round" stroke-linejoin="round"/>
<path d="M197 76.5H169V83.5H197V76.5Z" stroke="#1A2B33" stroke-width="1.5" stroke-linecap="round" stroke-linejoin="round"/>
<path d="M225 76.5H197V83.5H225V76.5Z" stroke="#1A2B33" stroke-width="1.5" stroke-linecap="round" stroke-linejoin="round"/>
<path d="M253 76.5H225V83.5H253V76.5Z" stroke="#1A2B33" stroke-width="1.5" stroke-linecap="round" stroke-linejoin="round"/>
<path d="M281 76.5H253V83.5H281V76.5Z" stroke="#1A2B33" stroke-width="1.5" stroke-linecap="round" stroke-linejoin="round"/>
<path d="M25.0977 255.5L25.0976 106.5" stroke="#1A2B33" stroke-width="1.5" stroke-linecap="round"/>
<path d="M65.0977 255.5L65.0976 106.5" stroke="#1A2B33" stroke-width="1.5" stroke-linecap="round"/>
<path d="M55.0977 255.5L55.0976 106.5" stroke="#1A2B33" stroke-width="1.5" stroke-linecap="round"/>
<path d="M45.0977 255.5L45.0976 106.5" stroke="#1A2B33" stroke-width="1.5" stroke-linecap="round"/>
<path d="M35.0977 255.5L35.0976 106.5" stroke="#1A2B33" stroke-width="1.5" stroke-linecap="round"/>
<path d="M73 99.5L17 99.5V106.5L73 106.5V99.5Z" stroke="#1A2B33" stroke-width="1.5" stroke-linecap="round" stroke-linejoin="round"/>
<path d="M73 255.5H17V262.5H73V255.5Z" stroke="#1A2B33" stroke-width="1.5" stroke-linecap="round" stroke-linejoin="round"/>
<path d="M281 76.5L1 76.5L1 99.5L281 99.5V76.5Z" stroke="#1A2B33" stroke-width="1.5" stroke-linecap="round" stroke-linejoin="round"/>
<path d="M281 262.5L1 262.5L1 285.5L281 285.5V262.5Z" stroke="#1A2B33" stroke-width="1.5" stroke-linecap="round" stroke-linejoin="round"/>
<path d="M140 9.5V2.5" stroke="#1A2B33" stroke-width="1.5" stroke-linecap="round" stroke-linejoin="round"/>
<circle cx="141" cy="46.5" r="18" stroke="#1A2B33" stroke-width="1.5" stroke-linecap="round" stroke-linejoin="round"/>
<circle cx="141" cy="46.5" r="11" stroke="#1A2B33" stroke-width="1.5" stroke-linecap="round" stroke-linejoin="round"/>
<path d="M141 35.5V28.5" stroke="#1A2B33" stroke-width="1.5" stroke-linecap="round" stroke-linejoin="round"/>
<path d="M141 64.5V57.5" stroke="#1A2B33" stroke-width="1.5" stroke-linecap="round" stroke-linejoin="round"/>
<path d="M130.006 46.5049L123.006 46.5049" stroke="#1A2B33" stroke-width="1.5" stroke-linecap="round" stroke-linejoin="round"/>
<path d="M159.006 46.5049L152.006 46.5049" stroke="#1A2B33" stroke-width="1.5" stroke-linecap="round" stroke-linejoin="round"/>
<path d="M133.223 54.2846L128.273 59.2344" stroke="#1A2B33" stroke-width="1.5" stroke-linecap="round" stroke-linejoin="round"/>
<path d="M153.731 33.7788L148.781 38.7285" stroke="#1A2B33" stroke-width="1.5" stroke-linecap="round" stroke-linejoin="round"/>
<path d="M148.781 54.2856L153.73 59.2354" stroke="#1A2B33" stroke-width="1.5" stroke-linecap="round" stroke-linejoin="round"/>
<path d="M128.275 33.7778L133.225 38.7275" stroke="#1A2B33" stroke-width="1.5" stroke-linecap="round" stroke-linejoin="round"/>
<path d="M26 64L28.5 69" stroke="#1A2B33" stroke-width="1.5" stroke-linecap="round" stroke-linejoin="round"/>
<path d="M72.25 39L74.75 44" stroke="#1A2B33" stroke-width="1.5" stroke-linecap="round" stroke-linejoin="round"/>
<path d="M49.25 51.5L51.75 56.5" stroke="#1A2B33" stroke-width="1.5" stroke-linecap="round" stroke-linejoin="round"/>
<path d="M95.5 26.5L98 31.5" stroke="#1A2B33" stroke-width="1.5" stroke-linecap="round" stroke-linejoin="round"/>
<path d="M118.5 13.5L121 18.5" stroke="#1A2B33" stroke-width="1.5" stroke-linecap="round" stroke-linejoin="round"/>
<path d="M255.75 64L253.25 69" stroke="#1A2B33" stroke-width="1.5" stroke-linecap="round" stroke-linejoin="round"/>
<path d="M209.5 39L207 44" stroke="#1A2B33" stroke-width="1.5" stroke-linecap="round" stroke-linejoin="round"/>
<path d="M232.5 51.5L230 56.5" stroke="#1A2B33" stroke-width="1.5" stroke-linecap="round" stroke-linejoin="round"/>
<path d="M186.25 26.5L183.75 31.5" stroke="#1A2B33" stroke-width="1.5" stroke-linecap="round" stroke-linejoin="round"/>
<path d="M162.25 14.5L159.75 19.5" stroke="#1A2B33" stroke-width="1.5" stroke-linecap="round" stroke-linejoin="round"/>
<path d="M121.098 255.5L121.098 106.5" stroke="#1A2B33" stroke-width="1.5" stroke-linecap="round"/>
<path d="M161.098 255.5L161.098 106.5" stroke="#1A2B33" stroke-width="1.5" stroke-linecap="round"/>
<path d="M151.098 255.5L151.098 106.5" stroke="#1A2B33" stroke-width="1.5" stroke-linecap="round"/>
<path d="M141.098 255.5L141.098 106.5" stroke="#1A2B33" stroke-width="1.5" stroke-linecap="round"/>
<path d="M131.098 255.5L131.098 106.5" stroke="#1A2B33" stroke-width="1.5" stroke-linecap="round"/>
<path d="M169 99.5L113 99.5V106.5L169 106.5V99.5Z" stroke="#1A2B33" stroke-width="1.5" stroke-linecap="round" stroke-linejoin="round"/>
<path d="M169 255.5H113V262.5H169V255.5Z" stroke="#1A2B33" stroke-width="1.5" stroke-linecap="round" stroke-linejoin="round"/>
<path d="M217.098 255.5L217.098 106.5" stroke="#1A2B33" stroke-width="1.5" stroke-linecap="round"/>
<path d="M257.098 255.5L257.098 106.5" stroke="#1A2B33" stroke-width="1.5" stroke-linecap="round"/>
<path d="M247.098 255.5L247.098 106.5" stroke="#1A2B33" stroke-width="1.5" stroke-linecap="round"/>
<path d="M237.098 255.5L237.098 106.5" stroke="#1A2B33" stroke-width="1.5" stroke-linecap="round"/>
<path d="M227.098 255.5L227.098 106.5" stroke="#1A2B33" stroke-width="1.5" stroke-linecap="round"/>
<path d="M265 99.5L209 99.5V106.5L265 106.5V99.5Z" stroke="#1A2B33" stroke-width="1.5" stroke-linecap="round" stroke-linejoin="round"/>
<path d="M265 255.5H209V262.5H265V255.5Z" stroke="#1A2B33" stroke-width="1.5" stroke-linecap="round" stroke-linejoin="round"/>
</svg>
