<svg width="111" height="114" viewBox="0 0 111 114" fill="none" xmlns="http://www.w3.org/2000/svg">
<path d="M110.712 30.5775L0.289063 30.5775L55.1061 1L110.712 30.5775Z" stroke="#1A2B33" stroke-width="0.59155" stroke-linecap="round" stroke-linejoin="round"/>
<path d="M105.19 30.5769L5.80957 30.5769L55.1449 4.1543L105.19 30.5769Z" stroke="#1A2B33" stroke-width="0.59155" stroke-linecap="round" stroke-linejoin="round"/>
<path d="M11.3313 30.5781L0.289062 30.5781L0.289063 33.3387H11.3313V30.5781Z" stroke="#1A2B33" stroke-width="0.59155" stroke-linecap="round" stroke-linejoin="round"/>
<path d="M22.3743 30.5781L11.332 30.5781V33.3387H22.3743V30.5781Z" stroke="#1A2B33" stroke-width="0.59155" stroke-linecap="round" stroke-linejoin="round"/>
<path d="M33.4153 30.5781L22.373 30.5781V33.3387H33.4153V30.5781Z" stroke="#1A2B33" stroke-width="0.59155" stroke-linecap="round" stroke-linejoin="round"/>
<path d="M44.4583 30.5781L33.416 30.5781V33.3387H44.4583V30.5781Z" stroke="#1A2B33" stroke-width="0.59155" stroke-linecap="round" stroke-linejoin="round"/>
<path d="M55.4993 30.5781L44.457 30.5781V33.3387H55.4993V30.5781Z" stroke="#1A2B33" stroke-width="0.59155" stroke-linecap="round" stroke-linejoin="round"/>
<path d="M66.5423 30.5781L55.5 30.5781V33.3387H66.5423V30.5781Z" stroke="#1A2B33" stroke-width="0.59155" stroke-linecap="round" stroke-linejoin="round"/>
<path d="M77.5852 30.5781L66.543 30.5781V33.3387H77.5852V30.5781Z" stroke="#1A2B33" stroke-width="0.59155" stroke-linecap="round" stroke-linejoin="round"/>
<path d="M88.6263 30.5781L77.584 30.5781V33.3387H88.6263V30.5781Z" stroke="#1A2B33" stroke-width="0.59155" stroke-linecap="round" stroke-linejoin="round"/>
<path d="M99.6692 30.5781L88.627 30.5781V33.3387H99.6692V30.5781Z" stroke="#1A2B33" stroke-width="0.59155" stroke-linecap="round" stroke-linejoin="round"/>
<path d="M110.71 30.5781L99.668 30.5781V33.3387H110.71V30.5781Z" stroke="#1A2B33" stroke-width="0.59155" stroke-linecap="round" stroke-linejoin="round"/>
<path d="M9.79199 101.17L9.79199 42.4093" stroke="#1A2B33" stroke-width="0.59155" stroke-linecap="round"/>
<path d="M25.5664 101.17L25.5664 42.4093" stroke="#1A2B33" stroke-width="0.59155" stroke-linecap="round"/>
<path d="M21.6221 101.17L21.6221 42.4093" stroke="#1A2B33" stroke-width="0.59155" stroke-linecap="round"/>
<path d="M17.6797 101.17L17.6797 42.4093" stroke="#1A2B33" stroke-width="0.59155" stroke-linecap="round"/>
<path d="M13.7354 101.17L13.7353 42.4093" stroke="#1A2B33" stroke-width="0.59155" stroke-linecap="round"/>
<path d="M28.6842 39.6475L6.59961 39.6475L6.59961 42.408L28.6842 42.408V39.6475Z" stroke="#1A2B33" stroke-width="0.59155" stroke-linecap="round" stroke-linejoin="round"/>
<path d="M28.6842 101.169H6.59961L6.59961 103.93H28.6842V101.169Z" stroke="#1A2B33" stroke-width="0.59155" stroke-linecap="round" stroke-linejoin="round"/>
<path d="M110.712 30.5781L0.289062 30.5781L0.289063 39.6486L110.712 39.6486V30.5781Z" stroke="#1A2B33" stroke-width="0.59155" stroke-linecap="round" stroke-linejoin="round"/>
<path d="M110.712 103.93L0.289062 103.93L0.289063 113L110.712 113V103.93Z" stroke="#1A2B33" stroke-width="0.59155" stroke-linecap="round" stroke-linejoin="round"/>
<path d="M55.1064 4.1551V1.39453" stroke="#1A2B33" stroke-width="0.59155" stroke-linecap="round" stroke-linejoin="round"/>
<circle cx="55.499" cy="18.7461" r="7.0986" stroke="#1A2B33" stroke-width="0.59155" stroke-linecap="round" stroke-linejoin="round"/>
<circle cx="55.4992" cy="18.7462" r="4.33804" stroke="#1A2B33" stroke-width="0.59155" stroke-linecap="round" stroke-linejoin="round"/>
<path d="M55.499 14.408V11.6475" stroke="#1A2B33" stroke-width="0.59155" stroke-linecap="round" stroke-linejoin="round"/>
<path d="M55.499 25.8446V23.084" stroke="#1A2B33" stroke-width="0.59155" stroke-linecap="round" stroke-linejoin="round"/>
<path d="M51.1639 18.748L48.4033 18.748" stroke="#1A2B33" stroke-width="0.59155" stroke-linecap="round" stroke-linejoin="round"/>
<path d="M62.6004 18.748L59.8398 18.748" stroke="#1A2B33" stroke-width="0.59155" stroke-linecap="round" stroke-linejoin="round"/>
<path d="M52.4325 21.8165L50.4805 23.7686" stroke="#1A2B33" stroke-width="0.59155" stroke-linecap="round" stroke-linejoin="round"/>
<path d="M60.5204 13.7296L58.5684 15.6816" stroke="#1A2B33" stroke-width="0.59155" stroke-linecap="round" stroke-linejoin="round"/>
<path d="M58.5675 21.8175L60.5195 23.7695" stroke="#1A2B33" stroke-width="0.59155" stroke-linecap="round" stroke-linejoin="round"/>
<path d="M50.4806 13.7296L52.4326 15.6816" stroke="#1A2B33" stroke-width="0.59155" stroke-linecap="round" stroke-linejoin="round"/>
<path d="M10.1481 25.6481L11.134 27.6199" stroke="#1A2B33" stroke-width="0.59155" stroke-linecap="round" stroke-linejoin="round"/>
<path d="M28.3864 15.7887L29.3723 17.7605" stroke="#1A2B33" stroke-width="0.59155" stroke-linecap="round" stroke-linejoin="round"/>
<path d="M19.317 20.7194L20.3029 22.6912" stroke="#1A2B33" stroke-width="0.59155" stroke-linecap="round" stroke-linejoin="round"/>
<path d="M37.5563 10.859L38.5422 12.8309" stroke="#1A2B33" stroke-width="0.59155" stroke-linecap="round" stroke-linejoin="round"/>
<path d="M46.6266 5.73206L47.6125 7.7039" stroke="#1A2B33" stroke-width="0.59155" stroke-linecap="round" stroke-linejoin="round"/>
<path d="M100.752 25.6471L99.7664 27.6189" stroke="#1A2B33" stroke-width="0.59155" stroke-linecap="round" stroke-linejoin="round"/>
<path d="M82.5131 15.7877L81.5271 17.7596" stroke="#1A2B33" stroke-width="0.59155" stroke-linecap="round" stroke-linejoin="round"/>
<path d="M91.5843 20.7184L90.5984 22.6902" stroke="#1A2B33" stroke-width="0.59155" stroke-linecap="round" stroke-linejoin="round"/>
<path d="M73.3451 10.859L72.3592 12.8309" stroke="#1A2B33" stroke-width="0.59155" stroke-linecap="round" stroke-linejoin="round"/>
<path d="M63.8802 6.12562L62.8943 8.09745" stroke="#1A2B33" stroke-width="0.59155" stroke-linecap="round" stroke-linejoin="round"/>
<path d="M47.6523 101.17L47.6523 42.4093" stroke="#1A2B33" stroke-width="0.59155" stroke-linecap="round"/>
<path d="M63.4268 101.17L63.4268 42.4093" stroke="#1A2B33" stroke-width="0.59155" stroke-linecap="round"/>
<path d="M59.4834 101.17L59.4834 42.4093" stroke="#1A2B33" stroke-width="0.59155" stroke-linecap="round"/>
<path d="M55.5391 101.17L55.5391 42.4093" stroke="#1A2B33" stroke-width="0.59155" stroke-linecap="round"/>
<path d="M51.5967 101.17L51.5967 42.4093" stroke="#1A2B33" stroke-width="0.59155" stroke-linecap="round"/>
<path d="M66.5416 39.6475L44.457 39.6475V42.408L66.5416 42.408V39.6475Z" stroke="#1A2B33" stroke-width="0.59155" stroke-linecap="round" stroke-linejoin="round"/>
<path d="M66.5416 101.169H44.457V103.93H66.5416V101.169Z" stroke="#1A2B33" stroke-width="0.59155" stroke-linecap="round" stroke-linejoin="round"/>
<path d="M85.5098 101.169L85.5098 42.4083" stroke="#1A2B33" stroke-width="0.59155" stroke-linecap="round"/>
<path d="M101.285 101.169L101.285 42.4083" stroke="#1A2B33" stroke-width="0.59155" stroke-linecap="round"/>
<path d="M97.3418 101.169L97.3418 42.4083" stroke="#1A2B33" stroke-width="0.59155" stroke-linecap="round"/>
<path d="M93.3965 101.169L93.3965 42.4083" stroke="#1A2B33" stroke-width="0.59155" stroke-linecap="round"/>
<path d="M89.4551 101.169L89.4551 42.4083" stroke="#1A2B33" stroke-width="0.59155" stroke-linecap="round"/>
<path d="M104.401 39.6475L82.3164 39.6475V42.408L104.401 42.408V39.6475Z" stroke="#1A2B33" stroke-width="0.59155" stroke-linecap="round" stroke-linejoin="round"/>
<path d="M104.401 101.169H82.3164V103.93H104.401V101.169Z" stroke="#1A2B33" stroke-width="0.59155" stroke-linecap="round" stroke-linejoin="round"/>
</svg>
