<svg width="352" height="303" viewBox="0 0 352 303" fill="none" xmlns="http://www.w3.org/2000/svg">
<rect x="1" y="1" width="350" height="237" rx="8" stroke="white" stroke-width="1.5" stroke-linecap="round" stroke-linejoin="round"/>
<path d="M13 14C13 12.8954 13.8954 12 15 12H337C338.105 12 339 12.8954 339 14V225C339 226.105 338.105 227 337 227H15C13.8954 227 13 226.105 13 225V14Z" stroke="#ACD2E5" stroke-opacity="0.4" stroke-width="1.5" stroke-linecap="round" stroke-linejoin="round"/>
<rect x="132" y="238" width="88.001" height="55.9482" stroke="white" stroke-width="1.5" stroke-linecap="round" stroke-linejoin="round"/>
<rect x="112" y="294" width="128" height="8" rx="1" stroke="white" stroke-width="1.5" stroke-linecap="round" stroke-linejoin="round"/>
<path d="M205.262 130.363C204.735 131.556 204.578 132.879 204.811 134.162C205.043 135.445 205.655 136.628 206.567 137.56L206.804 137.798C207.539 138.532 208.123 139.405 208.521 140.365C208.919 141.325 209.124 142.354 209.124 143.393C209.124 144.433 208.919 145.462 208.521 146.422C208.123 147.382 207.539 148.255 206.804 148.989C206.069 149.724 205.197 150.308 204.237 150.706C203.277 151.104 202.248 151.309 201.208 151.309C200.169 151.309 199.14 151.104 198.18 150.706C197.219 150.308 196.347 149.724 195.613 148.989L195.375 148.752C194.443 147.84 193.26 147.229 191.977 146.996C190.694 146.763 189.371 146.92 188.178 147.447C187.008 147.948 186.011 148.78 185.308 149.841C184.606 150.902 184.229 152.146 184.223 153.418V154.09C184.223 156.188 183.39 158.2 181.907 159.683C180.424 161.166 178.412 162 176.314 162C174.217 162 172.205 161.166 170.722 159.683C169.239 158.2 168.405 156.188 168.405 154.09V153.735C168.375 152.426 167.951 151.156 167.189 150.091C166.428 149.026 165.363 148.215 164.134 147.763C162.942 147.237 161.619 147.08 160.336 147.312C159.053 147.545 157.869 148.156 156.937 149.068L156.7 149.305C155.965 150.041 155.093 150.624 154.133 151.022C153.173 151.42 152.144 151.625 151.104 151.625C150.065 151.625 149.036 151.42 148.075 151.022C147.115 150.624 146.243 150.041 145.509 149.305C144.773 148.571 144.19 147.699 143.792 146.738C143.394 145.778 143.189 144.749 143.189 143.71C143.189 142.67 143.394 141.641 143.792 140.681C144.19 139.721 144.773 138.849 145.509 138.114L145.746 137.877C146.657 136.945 147.269 135.761 147.502 134.478C147.734 133.195 147.577 131.872 147.051 130.68C146.549 129.51 145.717 128.512 144.656 127.81C143.595 127.107 142.352 126.73 141.079 126.725H140.407C138.31 126.725 136.298 125.892 134.815 124.408C133.331 122.925 132.498 120.913 132.498 118.816C132.498 116.718 133.331 114.707 134.815 113.223C136.298 111.74 138.31 110.907 140.407 110.907H140.763C142.072 110.876 143.341 110.452 144.406 109.691C145.471 108.929 146.282 107.865 146.734 106.636C147.261 105.443 147.418 104.12 147.185 102.837C146.953 101.554 146.341 100.371 145.429 99.4386L145.192 99.2013C144.457 98.4668 143.873 97.5945 143.475 96.6344C143.077 95.6742 142.873 94.645 142.873 93.6056C142.873 92.5663 143.077 91.5371 143.475 90.5769C143.873 89.6168 144.457 88.7445 145.192 88.01C145.927 87.2746 146.799 86.6912 147.759 86.2932C148.719 85.8952 149.748 85.6903 150.788 85.6903C151.827 85.6903 152.856 85.8952 153.817 86.2932C154.777 86.6912 155.649 87.2746 156.384 88.01L156.621 88.2472C157.553 89.1589 158.737 89.7705 160.019 90.0031C161.25 90.2261 162.517 90.0909 163.671 89.6152C163.768 89.5749 163.873 89.5522 163.978 89.5522V89.5522C164.081 89.5522 164.183 89.5319 164.277 89.489C165.385 88.9824 166.33 88.1752 167.004 87.1576C167.707 86.0967 168.084 84.8534 168.089 83.5809V82.9086C168.089 80.811 168.922 78.7993 170.405 77.316C171.889 75.8328 173.9 74.9995 175.998 74.9995C178.096 74.9995 180.107 75.8328 181.591 77.316C183.074 78.7993 183.907 80.811 183.907 82.9086V83.2645C183.912 84.537 184.289 85.7803 184.992 86.8413C185.695 87.9022 186.692 88.7346 187.862 89.2359C189.054 89.7623 190.378 89.9193 191.66 89.6867C192.943 89.4541 194.127 88.8425 195.059 87.9309L195.296 87.6936C196.031 86.9582 196.903 86.3749 197.863 85.9769C198.823 85.5788 199.853 85.374 200.892 85.374C201.931 85.374 202.96 85.5788 203.921 85.9769C204.881 86.3749 205.753 86.9582 206.488 87.6936C207.223 88.4281 207.806 89.3004 208.204 90.2606C208.602 91.2207 208.807 92.2499 208.807 93.2893C208.807 94.3287 208.602 95.3578 208.204 96.318C207.806 97.2781 207.223 98.1504 206.488 98.885L206.25 99.1222C205.339 100.054 204.727 101.238 204.494 102.521C204.271 103.751 204.407 105.018 204.882 106.172C204.923 106.27 204.945 106.374 204.945 106.48V106.48C204.945 106.583 204.966 106.685 205.009 106.779C205.515 107.887 206.322 108.832 207.34 109.506C208.401 110.208 209.644 110.585 210.917 110.59H211.589C213.687 110.59 215.698 111.424 217.182 112.907C218.665 114.39 219.498 116.402 219.498 118.5C219.498 120.597 218.665 122.609 217.182 124.092C215.698 125.575 213.687 126.409 211.589 126.409H211.233C209.961 126.414 208.717 126.791 207.656 127.493C206.595 128.196 205.763 129.194 205.262 130.363Z" stroke="white" stroke-width="1.5" stroke-linecap="round" stroke-linejoin="round"/>
<path d="M175.999 130C182.35 130 187.499 124.851 187.499 118.5C187.499 112.149 182.35 107 175.999 107C169.648 107 164.499 112.149 164.499 118.5C164.499 124.851 169.648 130 175.999 130Z" stroke="white" stroke-width="1.5" stroke-linecap="round" stroke-linejoin="round"/>
<g filter="url(#filter0_d_2453_24841)">
<rect x="243.497" y="79.0005" width="16" height="16" fill="white"/>
</g>
<rect x="259.497" y="79.0005" width="16" height="16" fill="#ACD2E5" fill-opacity="0.6"/>
<rect x="275.497" y="79.0005" width="16" height="16" fill="#ACD2E5" fill-opacity="0.4"/>
<rect x="291.497" y="79.0005" width="16" height="16" fill="#ACD2E5" fill-opacity="0.25"/>
<rect x="307.497" y="79.0005" width="16" height="16" fill="#ACD2E5" fill-opacity="0.1"/>
<rect x="323.497" y="79.0005" width="16" height="16" fill="#ACD2E5" fill-opacity="0.05"/>
<g filter="url(#filter1_d_2453_24841)">
<rect x="243.497" y="48.0005" width="16" height="16" fill="white"/>
</g>
<rect x="259.497" y="48.0005" width="16" height="16" fill="#ACD2E5" fill-opacity="0.6"/>
<rect x="275.497" y="48.0005" width="16" height="16" fill="#ACD2E5" fill-opacity="0.4"/>
<rect x="291.497" y="48.0005" width="16" height="16" fill="#ACD2E5" fill-opacity="0.25"/>
<rect x="307.497" y="48.0005" width="16" height="16" fill="#ACD2E5" fill-opacity="0.1"/>
<rect x="323.497" y="48.0005" width="16" height="16" fill="#ACD2E5" fill-opacity="0.05"/>
<g filter="url(#filter2_d_2453_24841)">
<rect x="243.497" y="110" width="16" height="16" fill="white"/>
</g>
<rect x="259.497" y="110" width="16" height="16" fill="#ACD2E5" fill-opacity="0.6"/>
<rect x="275.497" y="110" width="16" height="16" fill="#ACD2E5" fill-opacity="0.4"/>
<rect x="291.497" y="110" width="16" height="16" fill="#ACD2E5" fill-opacity="0.25"/>
<rect x="307.497" y="110" width="16" height="16" fill="#ACD2E5" fill-opacity="0.1"/>
<rect x="323.497" y="110" width="16" height="16" fill="#ACD2E5" fill-opacity="0.05"/>
<g filter="url(#filter3_d_2453_24841)">
<rect x="243.497" y="141" width="16" height="16" fill="white"/>
</g>
<rect x="259.497" y="141" width="16" height="16" fill="#ACD2E5" fill-opacity="0.6"/>
<rect x="275.497" y="141" width="16" height="16" fill="#ACD2E5" fill-opacity="0.4"/>
<rect x="291.497" y="141" width="16" height="16" fill="#ACD2E5" fill-opacity="0.25"/>
<rect x="307.497" y="141" width="16" height="16" fill="#ACD2E5" fill-opacity="0.1"/>
<rect x="323.497" y="141" width="16" height="16" fill="#ACD2E5" fill-opacity="0.05"/>
<g filter="url(#filter4_d_2453_24841)">
<rect x="243.497" y="172" width="16" height="16" fill="white"/>
</g>
<rect x="259.497" y="172" width="16" height="16" fill="#ACD2E5" fill-opacity="0.6"/>
<rect x="275.497" y="172" width="16" height="16" fill="#ACD2E5" fill-opacity="0.4"/>
<rect x="291.497" y="172" width="16" height="16" fill="#ACD2E5" fill-opacity="0.25"/>
<rect x="307.497" y="172" width="16" height="16" fill="#ACD2E5" fill-opacity="0.1"/>
<rect x="323.497" y="172" width="16" height="16" fill="#ACD2E5" fill-opacity="0.05"/>
<g filter="url(#filter5_d_2453_24841)">
<rect x="106.834" y="157" width="15.5556" height="15.5556" transform="rotate(-180 106.834 157)" fill="white"/>
</g>
<rect x="91.2783" y="157" width="15.5556" height="15.5556" transform="rotate(-180 91.2783 157)" fill="#ACD2E5" fill-opacity="0.6"/>
<rect x="75.7227" y="157" width="15.5556" height="15.5556" transform="rotate(-180 75.7227 157)" fill="#ACD2E5" fill-opacity="0.4"/>
<rect x="60.167" y="157" width="15.5556" height="15.5556" transform="rotate(-180 60.167 157)" fill="#ACD2E5" fill-opacity="0.25"/>
<rect x="44.6113" y="157" width="15.5556" height="15.5556" transform="rotate(-180 44.6113 157)" fill="#ACD2E5" fill-opacity="0.1"/>
<rect x="29.0557" y="157" width="15.5556" height="15.5556" transform="rotate(-180 29.0557 157)" fill="#ACD2E5" fill-opacity="0.05"/>
<g filter="url(#filter6_d_2453_24841)">
<rect x="106.834" y="188" width="15.5556" height="15.5556" transform="rotate(-180 106.834 188)" fill="white"/>
</g>
<rect x="91.2783" y="188" width="15.5556" height="15.5556" transform="rotate(-180 91.2783 188)" fill="#ACD2E5" fill-opacity="0.6"/>
<rect x="75.7227" y="188" width="15.5556" height="15.5556" transform="rotate(-180 75.7227 188)" fill="#ACD2E5" fill-opacity="0.4"/>
<rect x="60.167" y="188" width="15.5556" height="15.5556" transform="rotate(-180 60.167 188)" fill="#ACD2E5" fill-opacity="0.25"/>
<rect x="44.6113" y="188" width="15.5556" height="15.5556" transform="rotate(-180 44.6113 188)" fill="#ACD2E5" fill-opacity="0.1"/>
<rect x="29.0557" y="188" width="15.5556" height="15.5556" transform="rotate(-180 29.0557 188)" fill="#ACD2E5" fill-opacity="0.05"/>
<g filter="url(#filter7_d_2453_24841)">
<rect x="106.834" y="126" width="15.5556" height="15.5556" transform="rotate(-180 106.834 126)" fill="white"/>
</g>
<rect x="91.2783" y="126" width="15.5556" height="15.5556" transform="rotate(-180 91.2783 126)" fill="#ACD2E5" fill-opacity="0.6"/>
<rect x="75.7227" y="126" width="15.5556" height="15.5556" transform="rotate(-180 75.7227 126)" fill="#ACD2E5" fill-opacity="0.4"/>
<rect x="60.167" y="126" width="15.5556" height="15.5556" transform="rotate(-180 60.167 126)" fill="#ACD2E5" fill-opacity="0.25"/>
<rect x="44.6113" y="126" width="15.5556" height="15.5556" transform="rotate(-180 44.6113 126)" fill="#ACD2E5" fill-opacity="0.1"/>
<rect x="29.0557" y="126" width="15.5556" height="15.5556" transform="rotate(-180 29.0557 126)" fill="#ACD2E5" fill-opacity="0.05"/>
<g filter="url(#filter8_d_2453_24841)">
<rect x="106.834" y="94.999" width="15.5556" height="15.5556" transform="rotate(-180 106.834 94.999)" fill="white"/>
</g>
<rect x="91.2783" y="94.999" width="15.5556" height="15.5556" transform="rotate(-180 91.2783 94.999)" fill="#ACD2E5" fill-opacity="0.6"/>
<rect x="75.7227" y="94.999" width="15.5556" height="15.5556" transform="rotate(-180 75.7227 94.999)" fill="#ACD2E5" fill-opacity="0.4"/>
<rect x="60.167" y="94.999" width="15.5556" height="15.5556" transform="rotate(-180 60.167 94.999)" fill="#ACD2E5" fill-opacity="0.25"/>
<rect x="44.6113" y="94.999" width="15.5556" height="15.5556" transform="rotate(-180 44.6113 94.999)" fill="#ACD2E5" fill-opacity="0.1"/>
<rect x="29.0557" y="94.999" width="15.5556" height="15.5556" transform="rotate(-180 29.0557 94.999)" fill="#ACD2E5" fill-opacity="0.05"/>
<g filter="url(#filter9_d_2453_24841)">
<rect x="106.834" y="64" width="15.5556" height="15.5556" transform="rotate(-180 106.834 64)" fill="white"/>
</g>
<rect x="91.2783" y="64" width="15.5556" height="15.5556" transform="rotate(-180 91.2783 64)" fill="#ACD2E5" fill-opacity="0.6"/>
<rect x="75.7227" y="64" width="15.5556" height="15.5556" transform="rotate(-180 75.7227 64)" fill="#ACD2E5" fill-opacity="0.4"/>
<rect x="60.167" y="64" width="15.5556" height="15.5556" transform="rotate(-180 60.167 64)" fill="#ACD2E5" fill-opacity="0.25"/>
<rect x="44.6113" y="64" width="15.5556" height="15.5556" transform="rotate(-180 44.6113 64)" fill="#ACD2E5" fill-opacity="0.1"/>
<rect x="29.0557" y="64" width="15.5556" height="15.5556" transform="rotate(-180 29.0557 64)" fill="#ACD2E5" fill-opacity="0.05"/>
<defs>
<filter id="filter0_d_2453_24841" x="227.497" y="63.0005" width="48" height="48.0005" filterUnits="userSpaceOnUse" color-interpolation-filters="sRGB">
<feFlood flood-opacity="0" result="BackgroundImageFix"/>
<feColorMatrix in="SourceAlpha" type="matrix" values="0 0 0 0 0 0 0 0 0 0 0 0 0 0 0 0 0 0 127 0" result="hardAlpha"/>
<feOffset/>
<feGaussianBlur stdDeviation="8"/>
<feComposite in2="hardAlpha" operator="out"/>
<feColorMatrix type="matrix" values="0 0 0 0 1 0 0 0 0 1 0 0 0 0 1 0 0 0 0.3 0"/>
<feBlend mode="normal" in2="BackgroundImageFix" result="effect1_dropShadow_2453_24841"/>
<feBlend mode="normal" in="SourceGraphic" in2="effect1_dropShadow_2453_24841" result="shape"/>
</filter>
<filter id="filter1_d_2453_24841" x="227.497" y="32.0005" width="48" height="48" filterUnits="userSpaceOnUse" color-interpolation-filters="sRGB">
<feFlood flood-opacity="0" result="BackgroundImageFix"/>
<feColorMatrix in="SourceAlpha" type="matrix" values="0 0 0 0 0 0 0 0 0 0 0 0 0 0 0 0 0 0 127 0" result="hardAlpha"/>
<feOffset/>
<feGaussianBlur stdDeviation="8"/>
<feComposite in2="hardAlpha" operator="out"/>
<feColorMatrix type="matrix" values="0 0 0 0 1 0 0 0 0 1 0 0 0 0 1 0 0 0 0.3 0"/>
<feBlend mode="normal" in2="BackgroundImageFix" result="effect1_dropShadow_2453_24841"/>
<feBlend mode="normal" in="SourceGraphic" in2="effect1_dropShadow_2453_24841" result="shape"/>
</filter>
<filter id="filter2_d_2453_24841" x="227.497" y="94" width="48" height="48" filterUnits="userSpaceOnUse" color-interpolation-filters="sRGB">
<feFlood flood-opacity="0" result="BackgroundImageFix"/>
<feColorMatrix in="SourceAlpha" type="matrix" values="0 0 0 0 0 0 0 0 0 0 0 0 0 0 0 0 0 0 127 0" result="hardAlpha"/>
<feOffset/>
<feGaussianBlur stdDeviation="8"/>
<feComposite in2="hardAlpha" operator="out"/>
<feColorMatrix type="matrix" values="0 0 0 0 1 0 0 0 0 1 0 0 0 0 1 0 0 0 0.3 0"/>
<feBlend mode="normal" in2="BackgroundImageFix" result="effect1_dropShadow_2453_24841"/>
<feBlend mode="normal" in="SourceGraphic" in2="effect1_dropShadow_2453_24841" result="shape"/>
</filter>
<filter id="filter3_d_2453_24841" x="227.497" y="125" width="48" height="48" filterUnits="userSpaceOnUse" color-interpolation-filters="sRGB">
<feFlood flood-opacity="0" result="BackgroundImageFix"/>
<feColorMatrix in="SourceAlpha" type="matrix" values="0 0 0 0 0 0 0 0 0 0 0 0 0 0 0 0 0 0 127 0" result="hardAlpha"/>
<feOffset/>
<feGaussianBlur stdDeviation="8"/>
<feComposite in2="hardAlpha" operator="out"/>
<feColorMatrix type="matrix" values="0 0 0 0 1 0 0 0 0 1 0 0 0 0 1 0 0 0 0.3 0"/>
<feBlend mode="normal" in2="BackgroundImageFix" result="effect1_dropShadow_2453_24841"/>
<feBlend mode="normal" in="SourceGraphic" in2="effect1_dropShadow_2453_24841" result="shape"/>
</filter>
<filter id="filter4_d_2453_24841" x="227.497" y="156" width="48" height="48" filterUnits="userSpaceOnUse" color-interpolation-filters="sRGB">
<feFlood flood-opacity="0" result="BackgroundImageFix"/>
<feColorMatrix in="SourceAlpha" type="matrix" values="0 0 0 0 0 0 0 0 0 0 0 0 0 0 0 0 0 0 127 0" result="hardAlpha"/>
<feOffset/>
<feGaussianBlur stdDeviation="8"/>
<feComposite in2="hardAlpha" operator="out"/>
<feColorMatrix type="matrix" values="0 0 0 0 1 0 0 0 0 1 0 0 0 0 1 0 0 0 0.3 0"/>
<feBlend mode="normal" in2="BackgroundImageFix" result="effect1_dropShadow_2453_24841"/>
<feBlend mode="normal" in="SourceGraphic" in2="effect1_dropShadow_2453_24841" result="shape"/>
</filter>
<filter id="filter5_d_2453_24841" x="75.2783" y="125.444" width="47.5557" height="47.5557" filterUnits="userSpaceOnUse" color-interpolation-filters="sRGB">
<feFlood flood-opacity="0" result="BackgroundImageFix"/>
<feColorMatrix in="SourceAlpha" type="matrix" values="0 0 0 0 0 0 0 0 0 0 0 0 0 0 0 0 0 0 127 0" result="hardAlpha"/>
<feOffset/>
<feGaussianBlur stdDeviation="8"/>
<feComposite in2="hardAlpha" operator="out"/>
<feColorMatrix type="matrix" values="0 0 0 0 1 0 0 0 0 1 0 0 0 0 1 0 0 0 0.3 0"/>
<feBlend mode="normal" in2="BackgroundImageFix" result="effect1_dropShadow_2453_24841"/>
<feBlend mode="normal" in="SourceGraphic" in2="effect1_dropShadow_2453_24841" result="shape"/>
</filter>
<filter id="filter6_d_2453_24841" x="75.2783" y="156.444" width="47.5557" height="47.5557" filterUnits="userSpaceOnUse" color-interpolation-filters="sRGB">
<feFlood flood-opacity="0" result="BackgroundImageFix"/>
<feColorMatrix in="SourceAlpha" type="matrix" values="0 0 0 0 0 0 0 0 0 0 0 0 0 0 0 0 0 0 127 0" result="hardAlpha"/>
<feOffset/>
<feGaussianBlur stdDeviation="8"/>
<feComposite in2="hardAlpha" operator="out"/>
<feColorMatrix type="matrix" values="0 0 0 0 1 0 0 0 0 1 0 0 0 0 1 0 0 0 0.3 0"/>
<feBlend mode="normal" in2="BackgroundImageFix" result="effect1_dropShadow_2453_24841"/>
<feBlend mode="normal" in="SourceGraphic" in2="effect1_dropShadow_2453_24841" result="shape"/>
</filter>
<filter id="filter7_d_2453_24841" x="75.2783" y="94.4443" width="47.5557" height="47.5557" filterUnits="userSpaceOnUse" color-interpolation-filters="sRGB">
<feFlood flood-opacity="0" result="BackgroundImageFix"/>
<feColorMatrix in="SourceAlpha" type="matrix" values="0 0 0 0 0 0 0 0 0 0 0 0 0 0 0 0 0 0 127 0" result="hardAlpha"/>
<feOffset/>
<feGaussianBlur stdDeviation="8"/>
<feComposite in2="hardAlpha" operator="out"/>
<feColorMatrix type="matrix" values="0 0 0 0 1 0 0 0 0 1 0 0 0 0 1 0 0 0 0.3 0"/>
<feBlend mode="normal" in2="BackgroundImageFix" result="effect1_dropShadow_2453_24841"/>
<feBlend mode="normal" in="SourceGraphic" in2="effect1_dropShadow_2453_24841" result="shape"/>
</filter>
<filter id="filter8_d_2453_24841" x="75.2783" y="63.4434" width="47.5557" height="47.5557" filterUnits="userSpaceOnUse" color-interpolation-filters="sRGB">
<feFlood flood-opacity="0" result="BackgroundImageFix"/>
<feColorMatrix in="SourceAlpha" type="matrix" values="0 0 0 0 0 0 0 0 0 0 0 0 0 0 0 0 0 0 127 0" result="hardAlpha"/>
<feOffset/>
<feGaussianBlur stdDeviation="8"/>
<feComposite in2="hardAlpha" operator="out"/>
<feColorMatrix type="matrix" values="0 0 0 0 1 0 0 0 0 1 0 0 0 0 1 0 0 0 0.3 0"/>
<feBlend mode="normal" in2="BackgroundImageFix" result="effect1_dropShadow_2453_24841"/>
<feBlend mode="normal" in="SourceGraphic" in2="effect1_dropShadow_2453_24841" result="shape"/>
</filter>
<filter id="filter9_d_2453_24841" x="75.2783" y="32.4443" width="47.5557" height="47.5557" filterUnits="userSpaceOnUse" color-interpolation-filters="sRGB">
<feFlood flood-opacity="0" result="BackgroundImageFix"/>
<feColorMatrix in="SourceAlpha" type="matrix" values="0 0 0 0 0 0 0 0 0 0 0 0 0 0 0 0 0 0 127 0" result="hardAlpha"/>
<feOffset/>
<feGaussianBlur stdDeviation="8"/>
<feComposite in2="hardAlpha" operator="out"/>
<feColorMatrix type="matrix" values="0 0 0 0 1 0 0 0 0 1 0 0 0 0 1 0 0 0 0.3 0"/>
<feBlend mode="normal" in2="BackgroundImageFix" result="effect1_dropShadow_2453_24841"/>
<feBlend mode="normal" in="SourceGraphic" in2="effect1_dropShadow_2453_24841" result="shape"/>
</filter>
</defs>
</svg>
