<svg
  viewBox="0 0 864 1080"
  xmlns="http://www.w3.org/2000/svg"
  preserveAspectRatio="xMidYMid meet"
  width="100%" height="100%"   
>
<rect width="864" height="1080" fill="#ECF8FF"/>
<rect width="96" height="98.1818" fill="#0018F3" fill-opacity="0.02"/>
<rect x="96" width="96" height="98.1818" fill="#0018F3" fill-opacity="0.02"/>
<rect x="192" width="96" height="98.1818" fill="#0018F3" fill-opacity="0.05"/>
<rect x="288" width="96" height="98.1818" fill="#0018F3" fill-opacity="0.1"/>
<rect x="384" width="96" height="98.1818" fill="#0018F3" fill-opacity="0.15"/>
<rect x="480" width="96" height="98.1818" fill="#0018F3" fill-opacity="0.1"/>
<rect x="576" width="96" height="98.1818" fill="#0018F3" fill-opacity="0.05"/>
<rect x="672" width="96" height="98.1818" fill="#0018F3" fill-opacity="0.02"/>
<rect x="768" width="96" height="98.1818" fill="#0018F3" fill-opacity="0.02"/>
<rect y="98.182" width="96" height="98.1818" fill="#0018F3" fill-opacity="0.02"/>
<rect x="96" y="98.182" width="96" height="98.1818" fill="#0018F3" fill-opacity="0.05"/>
<rect x="192" y="98.182" width="96" height="98.1818" fill="#0018F3" fill-opacity="0.1"/>
<rect x="288" y="98.182" width="96" height="98.1818" fill="#0018F3" fill-opacity="0.15"/>
<rect x="384" y="98.182" width="96" height="98.1818" fill="#0018F3" fill-opacity="0.25"/>
<rect x="480" y="98.182" width="96" height="98.1818" fill="#0018F3" fill-opacity="0.15"/>
<rect x="576" y="98.182" width="96" height="98.1818" fill="#0018F3" fill-opacity="0.1"/>
<rect x="672" y="98.182" width="96" height="98.1818" fill="#0018F3" fill-opacity="0.05"/>
<rect x="768" y="98.182" width="96" height="98.1818" fill="#0018F3" fill-opacity="0.02"/>
<rect y="196.364" width="96" height="98.1818" fill="#0018F3" fill-opacity="0.05"/>
<rect x="96" y="196.364" width="96" height="98.1818" fill="#0018F3" fill-opacity="0.1"/>
<rect x="192" y="196.364" width="96" height="98.1818" fill="#0018F3" fill-opacity="0.15"/>
<rect x="288" y="196.364" width="96" height="98.1818" fill="#0018F3" fill-opacity="0.25"/>
<rect x="384" y="196.364" width="96" height="98.1818" fill="#0018F3"/>
<rect x="480" y="196.364" width="96" height="98.1818" fill="#0018F3" fill-opacity="0.25"/>
<rect x="576" y="196.364" width="96" height="98.1818" fill="#0018F3" fill-opacity="0.15"/>
<rect x="672" y="196.364" width="96" height="98.1818" fill="#0018F3" fill-opacity="0.1"/>
<rect x="768" y="196.364" width="96" height="98.1818" fill="#0018F3" fill-opacity="0.05"/>
<rect y="294.545" width="96" height="98.1818" fill="#0018F3" fill-opacity="0.1"/>
<rect x="96" y="294.545" width="96" height="98.1818" fill="#0018F3" fill-opacity="0.15"/>
<rect x="192" y="294.545" width="96" height="98.1818" fill="#0018F3" fill-opacity="0.25"/>
<rect x="288" y="294.545" width="96" height="98.1818" fill="#0018F3"/>
<rect x="384" y="294.545" width="96" height="98.1818" fill="#0018F3" fill-opacity="0.25"/>
<rect x="480" y="294.545" width="96" height="98.1818" fill="#0018F3"/>
<rect x="576" y="294.545" width="96" height="98.1818" fill="#0018F3" fill-opacity="0.25"/>
<rect x="672" y="294.545" width="96" height="98.1818" fill="#0018F3" fill-opacity="0.15"/>
<rect x="768" y="294.545" width="96" height="98.1818" fill="#0018F3" fill-opacity="0.1"/>
<rect y="392.727" width="96" height="98.1818" fill="#0018F3" fill-opacity="0.15"/>
<rect x="96" y="392.727" width="96" height="98.1818" fill="#0018F3" fill-opacity="0.25"/>
<rect x="192" y="392.727" width="96" height="98.1818" fill="#0018F3"/>
<rect x="288" y="392.727" width="96" height="98.1818" fill="#0018F3" fill-opacity="0.25"/>
<rect x="384" y="392.727" width="96" height="98.1818" fill="#0018F3" fill-opacity="0.15"/>
<rect x="480" y="392.727" width="96" height="98.1818" fill="#0018F3" fill-opacity="0.25"/>
<rect x="576" y="392.727" width="96" height="98.1818" fill="#0018F3"/>
<rect x="672" y="392.727" width="96" height="98.1818" fill="#0018F3" fill-opacity="0.25"/>
<rect x="768" y="392.727" width="96" height="98.1818" fill="#0018F3" fill-opacity="0.15"/>
<rect y="490.909" width="96" height="98.1818" fill="#0018F3" fill-opacity="0.25"/>
<rect x="96" y="490.909" width="96" height="98.1818" fill="#0018F3"/>
<rect x="192" y="490.909" width="96" height="98.1818" fill="#0018F3" fill-opacity="0.25"/>
<rect x="288" y="490.909" width="96" height="98.1818" fill="#0018F3"/>
<rect x="384" y="490.909" width="96" height="98.1818" fill="#0018F3" fill-opacity="0.25"/>
<rect x="480" y="490.909" width="96" height="98.1818" fill="#0018F3"/>
<rect x="576" y="490.909" width="96" height="98.1818" fill="#0018F3" fill-opacity="0.25"/>
<rect x="672" y="490.909" width="96" height="98.1818" fill="#0018F3"/>
<rect x="768" y="490.909" width="96" height="98.1818" fill="#0018F3" fill-opacity="0.25"/>
<rect y="589.091" width="96" height="98.1818" fill="#0018F3" fill-opacity="0.15"/>
<rect x="96" y="589.091" width="96" height="98.1818" fill="#0018F3" fill-opacity="0.25"/>
<rect x="192" y="589.091" width="96" height="98.1818" fill="#0018F3" fill-opacity="0.15"/>
<rect x="288" y="589.091" width="96" height="98.1818" fill="#0018F3" fill-opacity="0.25"/>
<rect x="384" y="589.091" width="96" height="98.1818" fill="#0018F3"/>
<rect x="480" y="589.091" width="96" height="98.1818" fill="#0018F3" fill-opacity="0.25"/>
<rect x="576" y="589.091" width="96" height="98.1818" fill="#0018F3" fill-opacity="0.15"/>
<rect x="672" y="589.091" width="96" height="98.1818" fill="#0018F3" fill-opacity="0.25"/>
<rect x="768" y="589.091" width="96" height="98.1818" fill="#0018F3" fill-opacity="0.15"/>
<rect y="687.273" width="96" height="98.1818" fill="#0018F3" fill-opacity="0.1"/>
<rect x="96" y="687.273" width="96" height="98.1818" fill="#0018F3" fill-opacity="0.15"/>
<rect x="192" y="687.273" width="96" height="98.1818" fill="#0018F3" fill-opacity="0.25"/>
<rect x="288" y="687.273" width="96" height="98.1818" fill="#0018F3"/>
<rect x="384" y="687.273" width="96" height="98.1818" fill="#0018F3" fill-opacity="0.25"/>
<rect x="480" y="687.273" width="96" height="98.1818" fill="#0018F3"/>
<rect x="576" y="687.273" width="96" height="98.1818" fill="#0018F3" fill-opacity="0.25"/>
<rect x="672" y="687.273" width="96" height="98.1818" fill="#0018F3" fill-opacity="0.15"/>
<rect x="768" y="687.273" width="96" height="98.1818" fill="#0018F3" fill-opacity="0.1"/>
<rect y="785.455" width="96" height="98.1818" fill="#0018F3" fill-opacity="0.05"/>
<rect x="96" y="785.455" width="96" height="98.1818" fill="#0018F3" fill-opacity="0.1"/>
<rect x="192" y="785.455" width="96" height="98.1818" fill="#0018F3" fill-opacity="0.15"/>
<rect x="288" y="785.455" width="96" height="98.1818" fill="#0018F3" fill-opacity="0.25"/>
<rect x="384" y="785.455" width="96" height="98.1818" fill="#0018F3"/>
<rect x="480" y="785.455" width="96" height="98.1818" fill="#0018F3" fill-opacity="0.25"/>
<rect x="576" y="785.455" width="96" height="98.1818" fill="#0018F3" fill-opacity="0.15"/>
<rect x="672" y="785.455" width="96" height="98.1818" fill="#0018F3" fill-opacity="0.1"/>
<rect x="768" y="785.455" width="96" height="98.1818" fill="#0018F3" fill-opacity="0.05"/>
<rect y="883.636" width="96" height="98.1818" fill="#0018F3" fill-opacity="0.02"/>
<rect x="96" y="883.636" width="96" height="98.1818" fill="#0018F3" fill-opacity="0.05"/>
<rect x="192" y="883.636" width="96" height="98.1818" fill="#0018F3" fill-opacity="0.1"/>
<rect x="288" y="883.636" width="96" height="98.1818" fill="#0018F3" fill-opacity="0.15"/>
<rect x="384" y="883.636" width="96" height="98.1818" fill="#0018F3" fill-opacity="0.25"/>
<rect x="480" y="883.636" width="96" height="98.1818" fill="#0018F3" fill-opacity="0.15"/>
<rect x="576" y="883.636" width="96" height="98.1818" fill="#0018F3" fill-opacity="0.1"/>
<rect x="672" y="883.636" width="96" height="98.1818" fill="#0018F3" fill-opacity="0.05"/>
<rect x="768" y="883.636" width="96" height="98.1818" fill="#0018F3" fill-opacity="0.02"/>
<rect y="981.818" width="96" height="98.1818" fill="#0018F3" fill-opacity="0.02"/>
<rect x="96" y="981.818" width="96" height="98.1818" fill="#0018F3" fill-opacity="0.02"/>
<rect x="192" y="981.818" width="96" height="98.1818" fill="#0018F3" fill-opacity="0.05"/>
<rect x="288" y="981.818" width="96" height="98.1818" fill="#0018F3" fill-opacity="0.1"/>
<rect x="384" y="981.818" width="96" height="98.1818" fill="#0018F3" fill-opacity="0.15"/>
<rect x="480" y="981.818" width="96" height="98.1818" fill="#0018F3" fill-opacity="0.1"/>
<rect x="576" y="981.818" width="96" height="98.1818" fill="#0018F3" fill-opacity="0.05"/>
<rect x="672" y="981.818" width="96" height="98.1818" fill="#0018F3" fill-opacity="0.02"/>
<rect x="768" y="981.818" width="96" height="98.1818" fill="#0018F3" fill-opacity="0.02"/>
</svg>
